<svg id="light" enable-background="new 0 0 24 24" height="512" viewBox="0 0 24 24" width="512" xmlns="http://www.w3.org/2000/svg"><path d="m4.5 24h-4c-.276 0-.5-.224-.5-.5v-23c0-.276.224-.5.5-.5h17c.276 0 .5.224.5.5s-.224.5-.5.5h-16.5v22h3.5c.276 0 .5.224.5.5s-.224.5-.5.5z"/><path d="m23.5 24h-15c-.276 0-.5-.224-.5-.5s.224-.5.5-.5h14.5v-22h-1.5c-.276 0-.5-.224-.5-.5s.224-.5.5-.5h2c.276 0 .5.224.5.5v23c0 .276-.224.5-.5.5z"/><path d="m20.5 21h-3c-.276 0-.5-.224-.5-.5s.224-.5.5-.5h2.5v-9.5c0-.276.224-.5.5-.5s.5.224.5.5v10c0 .276-.224.5-.5.5z"/><path d="m23.5 7h-3c-.276 0-.5-.224-.5-.5v-2.5h-6.5c-.276 0-.5-.224-.5-.5s.224-.5.5-.5h7c.276 0 .5.224.5.5v2.5h2.5c.276 0 .5.224.5.5s-.224.5-.5.5z"/><path d="m3.5 9c-.276 0-.5-.224-.5-.5v-5c0-.276.224-.5.5-.5h7c.276 0 .5.224.5.5s-.224.5-.5.5h-6.5v4.5c0 .276-.224.5-.5.5z"/><path d="m13.5 21h-10c-.276 0-.5-.224-.5-.5v-8c0-.276.224-.5.5-.5h3c.276 0 .5.224.5.5s-.224.5-.5.5h-2.5v7h9.5c.276 0 .5.224.5.5s-.224.5-.5.5z"/><path d="m17.5 9c-.276 0-.5-.224-.5-.5v-1.5h-10.5c-.276 0-.5-.224-.5-.5s.224-.5.5-.5h11c.276 0 .5.224.5.5v2c0 .276-.224.5-.5.5z"/><path d="m17.5 18h-11c-.276 0-.5-.224-.5-.5v-7c0-.276.224-.5.5-.5s.5.224.5.5v6.5h10v-4.5c0-.276.224-.5.5-.5s.5.224.5.5v5c0 .276-.224.5-.5.5z"/><path d="m14.5 15h-5c-.276 0-.5-.224-.5-.5v-5c0-.276.224-.5.5-.5h5c.276 0 .5.224.5.5s-.224.5-.5.5h-4.5v4h4v-.5c0-.276.224-.5.5-.5s.5.224.5.5v1c0 .276-.224.5-.5.5z"/><path d="m6.5 4c-.276 0-.5-.224-.5-.5v-3c0-.276.224-.5.5-.5s.5.224.5.5v3c0 .276-.224.5-.5.5z"/><path d="m3.5 17h-3c-.276 0-.5-.224-.5-.5s.224-.5.5-.5h3c.276 0 .5.224.5.5s-.224.5-.5.5z"/><path d="m15.5 7c-.276 0-.5-.224-.5-.5v-3c0-.276.224-.5.5-.5s.5.224.5.5v3c0 .276-.224.5-.5.5z"/></svg>